<svg width="35" height="38" viewBox="0 0 35 38" fill="none" xmlns="http://www.w3.org/2000/svg">
<path d="M34.7495 25.0451L27.2757 11.6665C27.1526 11.4444 27.3134 11.171 27.5665 11.171H34.3117C34.5579 11.171 34.7221 10.9147 34.6161 10.6926C31.5308 4.36043 25.0285 0 17.5068 0C9.9852 0 3.16475 4.57914 0.175252 11.1608C-0.0847049 11.7349 -0.0539206 12.4013 0.257343 12.9549L7.7311 26.3335C7.85424 26.5556 7.69347 26.829 7.44036 26.829H0.695165C0.448891 26.829 0.284707 27.0853 0.390742 27.3074C3.47602 33.6396 9.97836 38 17.5 38C25.0216 38 31.8387 33.4209 34.8247 26.8392C35.0847 26.2651 35.0539 25.5987 34.7427 25.0451H34.7495ZM17.5034 23.5996C14.962 23.5996 12.8995 21.539 12.8995 19C12.8995 16.461 14.962 14.4004 17.5034 14.4004C20.0448 14.4004 22.1074 16.461 22.1074 19C22.1074 21.539 20.0448 23.5996 17.5034 23.5996Z" fill="#EF7826"/>
</svg>
