<svg width="70" height="35" viewBox="0 0 70 35" fill="none" xmlns="http://www.w3.org/2000/svg">
<path d="M68.7564 17.4286C64.3143 15.8552 59.2698 13.6578 53.9941 10.556C52.7437 9.81823 51.5525 9.07517 50.4151 8.32682C48.8313 7.28495 47.3497 6.10293 45.9191 4.86274C43.1657 2.47755 39.6297 0.946477 35.7388 0.697909C35.7146 0.697909 35.693 0.697909 35.6715 0.695265C35.5371 0.687332 35.4026 0.679399 35.2709 0.67411C35.2198 0.67411 35.1687 0.671466 35.1176 0.668822C34.9455 0.663533 34.7761 0.660889 34.604 0.660889H34.5933C25.5395 0.660889 18.1288 7.5679 17.5076 16.3154H0.66402C-0.0781317 16.3154 -0.258292 17.3308 0.438148 17.5767C4.8803 19.1501 9.92747 21.3475 15.2005 24.4493C16.4482 25.1871 17.6421 25.9302 18.7795 26.6785C20.366 27.7204 21.8449 28.9051 23.2754 30.1426C26.0262 32.5278 29.5649 34.0589 33.4558 34.3074C33.4773 34.3074 33.5015 34.3074 33.5231 34.3101C33.6575 34.318 33.7893 34.3259 33.9237 34.3312C33.9775 34.3312 34.0286 34.3339 34.0797 34.3365C34.2491 34.3418 34.4212 34.3445 34.5933 34.3445H34.604C43.6577 34.3445 51.0712 27.4374 51.6896 18.69H68.5333C69.2754 18.69 69.4556 17.6746 68.7591 17.4286H68.7564ZM34.596 22.1752C31.9715 22.1752 29.8419 20.0835 29.8419 17.5C29.8419 14.9165 31.9688 12.8248 34.596 12.8248C37.2231 12.8248 39.35 14.9165 39.35 17.5C39.35 20.0835 37.2231 22.1752 34.596 22.1752Z" fill="#EF7826"/>
<path d="M67.9284 19.6843H54.9058C54.2063 19.6843 53.6393 20.2419 53.6393 20.9298C53.6393 21.6177 54.2063 22.1753 54.9058 22.1753H67.9284C68.6279 22.1753 69.1949 21.6177 69.1949 20.9298C69.1949 20.2419 68.6279 19.6843 67.9284 19.6843Z" fill="#ACCD48"/>
<path d="M14.2891 12.825H1.2665C0.567031 12.825 0 13.3826 0 14.0704C0 14.7583 0.567031 15.3159 1.2665 15.3159H14.2891C14.9886 15.3159 15.5556 14.7583 15.5556 14.0704C15.5556 13.3826 14.9886 12.825 14.2891 12.825Z" fill="#ACCD48"/>
</svg>
